<?xml version="1.0" encoding="utf-8"?>
<!-- Generator: Adobe Illustrator 17.0.0, SVG Export Plug-In . SVG Version: 6.00 Build 0)  -->
<!DOCTYPE svg PUBLIC "-//W3C//DTD SVG 1.1//EN" "http://www.w3.org/Graphics/SVG/1.1/DTD/svg11.dtd">
<svg version="1.1" id="Power_to_you" xmlns="http://www.w3.org/2000/svg" xmlns:xlink="http://www.w3.org/1999/xlink" x="0px"
	 y="0px" width="283.464px" height="48.463px" viewBox="0 0 283.464 48.463" enable-background="new 0 0 283.464 48.463"
	 xml:space="preserve">
<path fill="#FFFFFF" d="M9.228,7.758c-3.186-0.14-8.238,0.188-8.96,0.862c-0.343,0.321-0.386,1.677,0.04,2.546
	c0.564,1.148,1.119,1.685,2.446,1.711c0.418,0.008,1.04-0.035,1.819-0.092c0.065,0.327,0.079,0.908,0.101,1.606
	c0.024,0.84,0.032,7.579-0.133,13.599c-0.004,0.3,0.018,0.738-0.321,0.886c-0.216,0.094-0.693-0.014-0.887,0.084
	c-0.491,0.248-0.781,1.106-0.537,2.231c0.139,0.635,0.529,1.129,0.876,1.507c0.228,0.249,0.583,0.484,0.68,0.753
	c0.098,0.268,0.115,0.655,0.11,1.047c-0.05,4.255-0.081,7.581-0.057,7.914c0.07,0.947,0.761,1.6,2.967,1.986
	c2.206,0.386,2.066-0.826,2.167-2.15c0.024-0.314,0.042-4.168,0.057-8.725c1.526-0.224,3.12-0.595,4.238-0.929
	c6.324-1.889,12.96-6.463,12.96-12.744C26.794,8.326,12.722,7.911,9.228,7.758 M11.08,28.051c-0.482,0.126-1.092,0.266-1.469,0.308
	c0.008-3.155,0.186-8.512,0.238-10.474c0.037-1.377,0.033-3.188-0.339-4.058c-0.271-0.634-0.795-0.923-0.688-1.15
	c0.116-0.248,1.548-0.106,2.613-0.032c4.248,0.298,11.154,1.503,10.944,6.491C22.218,23.007,16.864,26.529,11.08,28.051
	 M42.605,9.666c-1.062,0-1.668,0.192-1.992,0.487c-0.487,0.442-0.297,1.071-0.575,1.106c-0.355,0.044-1.461-0.487-3.983,1.195
	c-2.491,1.66-5.446,5.331-5.666,10.844c-0.105,2.657,1.531,9.782,9.782,9.782c5.002,0,12.615-4.47,12.784-12.792
	C53.156,10.332,44.066,9.666,42.605,9.666 M48.802,19.67c-0.182,4.056-5.299,8.676-9.737,8.676c-0.957,0-4.225-0.375-4.297-4.066
	c-0.048-2.447,1.729-6.104,5.454-7.581c1.595-0.633,2.162-0.393,2.737-0.658c0.668-0.308,0.385-1.185,1.815-1.063
	C46.137,15.095,48.959,16.18,48.802,19.67 M58.806,10.759c1.461,0.296,3.244,1.293,3.408,4.768c0.133,2.813,0.252,7.767,0.31,9.378
	c0.045,1.219,0.178,2.203,0.664,2.203c0.487,0,1.185-1.386,1.594-2.25c0.62-1.315,1.814-3.986,2.435-5.065
	c0.546-0.949,1.328-1.782,2.479-1.782c1.151,0,2.046,0.384,3.055,1.782c0.708,0.982,2.169,3.797,2.7,4.736
	c0.574,1.015,1.18,2.333,1.682,2.25c0.442-0.072,1.015-1.22,1.461-2.579c0.708-2.157,2.479-8.346,2.655-10.361
	c0.178-2.016-0.486-2.72-0.31-3.329c0.23-0.793,1.239-1.071,2.302-0.977c1.286,0.113,3.275,0.931,3.319,3.979
	c0.045,3.048-2.346,12.05-4.515,16.223c-1.522,2.93-2.522,2.906-3.983,2.953c-1.106,0.036-2.969-0.23-4.516-1.781
	c-0.84-0.844-1.682-2.672-2.036-3.376c-0.237-0.471-0.884-1.877-1.233-1.922c-0.404-0.052-0.601,0.435-0.847,0.891
	c-0.531,0.985-2.124,4.36-2.655,5.157c-0.348,0.521-1.151,1.875-3.541,1.734c-2.391-0.141-4.218-1.604-5.126-3.656
	c-1.204-2.72-1.21-11.306-1.337-14.582c-0.089-2.3-0.699-2.993-0.664-3.516C56.15,10.98,57.442,10.483,58.806,10.759 M110.019,27.15
	c-0.211-1.367-1.638-1.992-2.258-1.727c-0.655,0.281-0.974,0.797-1.814,1.439c-0.815,0.622-2.302,1.848-4.869,1.848
	c-2.567,0-3.68-1.226-4.23-1.928c-0.576-0.734-0.904-1.561-0.639-1.745c0.236-0.162,0.403-0.1,0.709-0.045
	c1.283,0.229,2.238-0.035,3.098-0.413c1.74-0.766,6.241-4.445,6.241-9.96c0-4.957-3.496-5.921-5.133-5.961
	c-1.639-0.04-3.418,0.316-5.517,2.03c-2.017,1.648-5.22,5.721-5.256,11.32c-0.038,5.875,3.446,11.03,10.106,11.199
	c5.445,0.138,7.6-2.017,8.278-2.754C109.62,29.491,110.195,28.298,110.019,27.15 M96.114,19.348
	c0.926-3.949,2.785-5.546,3.292-6.013c0.486-0.448,1.362-0.977,1.98-0.764c0.429,0.148,0.664,0.718,0.354,2.232
	c-0.224,1.095-1.947,5.829-5.887,6.747C95.854,21.551,95.81,20.643,96.114,19.348 M115.109,12.702
	c0.518-0.415,2.176-0.274,3.187,0.664c1.239,1.15,1.418,2.384,1.594,2.434c0.31,0.089,0.866-0.813,1.726-1.637
	c2.169-2.081,5.755-4.603,9.473-4.603c3.851,0,5.488,2.302,6.102,3.541c0.708,1.43,1.019,3.834-0.481,3.983
	c-0.885,0.089-1.207-0.633-1.566-1.106c-0.694-0.911-1.636-1.87-3.406-1.87c-1.195,0-2.234,0.385-3.452,0.97
	c-1.106,0.53-5.119,3.054-7.51,8.321c-0.688,1.515-0.979,3.779-1.106,5.681c-0.089,1.328,0.074,3.241-0.487,3.533
	c-0.558,0.29-1.991,0.053-2.744-0.213c-0.673-0.238-2.077-0.623-1.947-2.745c0.266-4.337,0.487-11.685,0.487-13.986
	C114.977,13.808,114.666,13.056,115.109,12.702 M191.216,11.061c-1.859,0.121-3.312,0.576-4.371,1.054
	c-1.342,0.606-4.242,2.381-6.232,5.324c-0.656,0.969-2.218,3.556-2.424,6.622c-0.324,4.815,2.66,7.274,3.954,8.151
	c1.342,0.908,3.144,1.587,5.251,1.414c2.393-0.197,4.88-1.271,6.385-2.326c2.322-1.627,6.749-6.318,6.571-12.161
	C200.14,12.17,193.856,10.889,191.216,11.061 M191.12,27.262c-2.202,1.835-3.706,1.916-4.615,1.916c-0.91,0-1.771-0.229-2.453-0.867
	c-0.926-0.867-1.131-2.075-0.954-3.717c0.256-2.386,1.712-4.878,2.903-6.324c0.411-0.499,1.159-1.196,1.694-1.267
	c0.661-0.086,0.815,0.346,1.234,0.357c0.747,0.02,0.91-0.484,1.504-1.049c0.732-0.696,1.594-0.932,2.422-0.891
	c1.24,0.061,2.946,0.948,2.867,3.551C195.641,21.7,193.849,24.989,191.12,27.262 M260.354,19.88
	c-0.238-6.466-5.519-8.03-8.984-8.075c-1.562-0.021-3.273,0.163-4.609,0.806c-0.404,0.193-0.856,0.575-0.989,1.04
	c-0.133,0.463-0.065,0.59-0.272,0.859c-0.199,0.262-0.929,0.819-1.508,1.274c-0.767,0.601-1.881,1.53-2.897,3.017
	c-0.609,0.891-2.012,3.304-1.951,6.195c0.079,3.65,1.733,5.943,3.994,6.976c1.376,0.63,3.048,1.021,5.367,0.759
	c2.501-0.283,5.059-1.499,6.713-2.793C258.231,27.578,260.521,24.392,260.354,19.88 M252.313,26.412
	c-1.034,0.713-2.736,1.639-4.973,1.902c-0.891,0.104-2.406,0.026-3.09-0.492c-0.498-0.378-1.011-0.928-1.057-2.161
	c-0.075-1.983,1.102-3.856,2.779-5.247c1.606-1.332,2.867-1.798,3.111-2.394c0.2-0.486,0.039-0.651,0.281-1.003
	c0.276-0.4,1.269-0.685,2.353-0.665c2.368,0.043,4.59,0.831,4.728,3.305C256.591,22.271,254.811,24.689,252.313,26.412
	 M180.924,8.082c-1.878,0.365-6.797,1.264-11.952,2.005c-0.61,0.088-1.307,0.256-1.51,0.11c-0.202-0.145-0.157-0.69-0.073-1.093
	c0.737-3.505,1.429-6.204,1.582-7.02c0.358-1.92-0.667-2.219-1.995-2.039c-1.937,0.262-2.972,0.958-3.649,3.66
	c-0.271,1.08-0.865,3.838-1.456,7.246c-1.094,0.102-2.132,0.178-3.078,0.22c-1.239,0.055-2.08-0.044-2.391,0.177
	c-0.31,0.222-0.442,0.399-0.222,1.55c0.271,1.407,1.107,2.611,2.126,3.143c0.547,0.285,1.482,0.272,2.759,0.102
	c-0.458,3.379-0.791,6.888-0.771,9.804c0.043,6.065,3.776,8.931,8.067,8.742c3.936-0.172,6.566-2.825,7.117-3.381
	c0.552-0.556,1.179-1.425,1.148-2.133c-0.031-0.707-0.646-1-1.062-0.977c-0.531,0.029-1.161,0.417-2.15,1.081
	c-0.891,0.597-2.543,1.617-4.224,1.691c-0.796,0.034-3.586,0.067-3.802-4.841c-0.124-2.865,0.172-6.201,0.642-9.467
	c0.07-0.492,0.135-1.069,0.416-1.375c0.282-0.306,1.254-0.397,2.005-0.563c5.352-1.177,11.45-2.746,13.886-3.774
	c1.992-0.841,2.623-1.885,2.528-2.479C184.686,7.364,183.676,7.547,180.924,8.082 M240.044,9.47
	c-0.633-1.368-1.947-2.628-2.658-2.526c-0.562,0.081-0.51,1.067-2.884,5.087c-0.979,1.658-4.09,7.11-7.346,13.035
	c-0.198-0.524-3.48-9.961-4.167-11.822c-0.552-1.496-0.685-2.47-1.688-2.682c-0.966-0.203-2.964,0.176-3.641,0.981
	c-0.314,0.373,0.126,0.894,0.749,2.537c1.239,3.262,4.057,10.883,5.452,14.326c0.286,0.707,0.421,1.149,0.365,1.621
	c-0.04,0.336-0.18,0.769-0.409,1.2c-1.753,3.29-3.337,6.368-4.398,8.644c-0.562,1.208-1.926,3.886-1.71,5.372
	c0.24,1.661,1.999,3.36,2.683,3.211c0.595-0.13,0.786-1.545,2.102-4.491c5.427-12.16,14.438-26.683,16.394-30.274
	C239.43,12.693,240.651,10.781,240.044,9.47 M265.35,12.565c0.888,0,3.246,0.912,3.246,3.132c0,2.219-0.555,7.821-0.555,9.265
	c0,1.721,0.066,3.438,1.109,3.604c1.018,0.163,2.311-1.135,3.088-1.856c2.219-2.051,4.826-5.769,5.049-6.546
	c0.222-0.776,0.435-2.089,0.606-2.995c0.176-0.934,0.836-4.938,1.502-5.492c0.543-0.452,1.42-0.229,2.219,0.044
	c0.831,0.285,2.133,0.75,1.796,2.563c-0.721,3.883-1.703,8.099-2.107,15.199c-0.104,1.832,0.61,2.552,0.998,2.886
	c0.389,0.333,1.089,0.904,0.832,1.497c-0.241,0.558-1.463,0.499-1.906,0.443c-1.044-0.129-3.035-0.649-3.828-3.161
	c-0.665-2.108-0.321-3.323-0.721-3.385c-0.253-0.038-0.78,0.63-1.149,1.035c-0.5,0.55-2.79,3.051-5.729,2.886
	c-3.323-0.188-5.738-2.219-6.183-5.493c-0.533-3.922,0.098-8.585,0.625-11.131C264.572,13.453,264.795,12.565,265.35,12.565"/>
</svg>
