<?xml version="1.0" encoding="utf-8"?>
<!-- Generator: Adobe Illustrator 17.0.0, SVG Export Plug-In . SVG Version: 6.00 Build 0)  -->
<!DOCTYPE svg PUBLIC "-//W3C//DTD SVG 1.1//EN" "http://www.w3.org/Graphics/SVG/1.1/DTD/svg11.dtd">
<svg version="1.1" id="Layer_1" xmlns="http://www.w3.org/2000/svg" xmlns:xlink="http://www.w3.org/1999/xlink" x="0px" y="0px"
	 width="832.016px" height="144.604px" viewBox="0 0 832.016 144.604" enable-background="new 0 0 832.016 144.604"
	 xml:space="preserve">
<g>
	<polygon fill="#FFFFFF" points="32.104,42.895 56.654,107.645 80.396,42.895 111.151,42.895 70.953,142.176 41.818,142.176 
		0,42.895 	"/>
	<path fill="#FFFFFF" d="M163.489,144.604c-31.834,0-51.799-22.391-51.799-52.066c0-29.678,19.965-52.07,51.799-52.07
		c32.104,0,52.068,22.393,52.068,52.07C215.558,122.213,195.594,144.604,163.489,144.604z M163.489,63.129
		c-15.378,0-22.933,13.492-22.933,29.678c0,15.916,7.555,29.137,22.933,29.137c15.378,0,22.933-13.221,22.933-29.137
		C186.422,76.621,178.867,63.129,163.489,63.129z"/>
	<path fill="#FFFFFF" d="M326.169,2.428v137.859c-11.869,2.43-25.63,4.316-42.355,4.316c-34.263,0-56.385-18.074-56.385-52.607
		c0-29.137,19.964-51.529,49.909-51.529c8.634,0,16.998,1.889,21.584,3.777V2.428H326.169z M298.922,67.717
		c-4.316-2.43-11.062-4.588-19.425-4.588c-14.839,0-23.201,12.68-23.201,28.867c0,19.695,12.68,29.678,28.058,29.678
		c5.396,0,10.791-0.271,14.568-1.078V67.717z"/>
	<path fill="#FFFFFF" d="M338.851,94.695c0-31.297,23.202-54.229,56.383-54.229c16.46,0,33.184,4.049,42.626,7.826v93.883h-24.28
		l-1.886-8.633c-5.668,6.477-13.763,11.061-26.711,11.061C358.811,144.604,338.851,125.452,338.851,94.695z M410.345,65.828
		c-2.97-0.81-8.905-1.891-15.649-1.891c-13.22,0-26.978,10.254-26.978,29.678c0,19.154,10.791,28.328,22.931,28.328
		c9.172,0,16.457-4.857,19.697-10.252V65.828z"/>
	<path fill="#FFFFFF" d="M490.468,0c7.285,0,16.189,1.35,21.043,2.428v23.74c-4.316-0.539-11.6-1.078-15.376-1.078
		c-6.475,0-8.902,1.078-11.062,2.969c-1.89,1.887-2.426,4.586-2.426,8.9v5.936h25.089v24.012h-25.089v75.27h-27.251V34.802
		c0-11.6,3.778-20.233,9.984-26.169C471.313,2.967,480.487,0,490.468,0z"/>
	<path fill="#FFFFFF" d="M562.231,144.604c-32.105,0-52.069-22.391-52.069-52.066c0-29.678,19.964-52.07,52.069-52.07
		c32.104,0,51.799,22.393,51.799,52.07C614.03,122.213,594.335,144.604,562.231,144.604z M562.231,63.129
		c-15.377,0-22.933,13.492-22.933,29.678c0,15.916,7.556,29.137,22.933,29.137c15.377,0,22.932-13.221,22.932-29.137
		C585.163,76.621,577.608,63.129,562.231,63.129z"/>
	<path fill="#FFFFFF" d="M696.853,87.68c0-14.836-7.554-22.393-22.662-22.393c-7.554,0-15.917,1.35-20.233,2.43v74.459H626.71
		V48.293c12.408-4.318,30.217-7.826,47.752-7.826c31.564,0,49.91,15.648,49.91,41.816v59.893h-27.519V87.68z"/>
	<path fill="#FFFFFF" d="M737.054,91.996c0-31.564,19.963-51.799,48.83-51.799c29.136,0,46.132,22.662,46.132,50.449
		c0,3.777-0.269,8.902-0.542,11.062h-66.633c1.348,14.027,10.522,21.584,28.596,21.584c15.378,0,27.788-3.24,34.803-5.396v18.076
		c-8.904,4.314-20.504,8.363-35.883,8.363C757.286,144.336,737.054,125.721,737.054,91.996z M806.928,81.744
		c-0.81-10.252-8.095-18.615-21.044-18.615c-12.953,0-19.425,7.016-20.505,18.615H806.928z"/>
</g>
</svg>
